<svg width="20" height="21" viewBox="0 0 20 21" fill="none" xmlns="http://www.w3.org/2000/svg">
<g id="Icon / Facebook">
<path id="Vector" d="M13.7507 5.07175H11.2507C10.7904 5.07175 10.4173 5.44485 10.4173 5.90508V8.40508H13.7507C13.8454 8.40298 13.9353 8.44708 13.9917 8.52333C14.048 8.59958 14.0638 8.69841 14.034 8.78841L13.4173 10.6217C13.3605 10.79 13.2032 10.9037 13.0257 10.9051H10.4173V17.1551C10.4173 17.3852 10.2307 17.5717 10.0007 17.5717H7.91732C7.6872 17.5717 7.50065 17.3852 7.50065 17.1551V10.9051H6.25065C6.02053 10.9051 5.83398 10.7185 5.83398 10.4884V8.82175C5.83398 8.59166 6.02053 8.40508 6.25065 8.40508H7.50065V5.90508C7.50065 4.06413 8.99307 2.57175 10.834 2.57175H13.7507C13.9807 2.57175 14.1673 2.7583 14.1673 2.98841V4.65508C14.1673 4.8852 13.9807 5.07175 13.7507 5.07175Z" fill="white"/>
</g>
</svg>
