<svg width="20" height="21" viewBox="0 0 20 21" fill="none" xmlns="http://www.w3.org/2000/svg">
<g id="instagram-logo-fill-svgrepo-com 1">
<path id="Vector" d="M12.5 10.0717C12.5 10.5662 12.3534 11.0495 12.0787 11.4607C11.804 11.8718 11.4135 12.1922 10.9567 12.3814C10.4999 12.5707 9.99723 12.6202 9.51227 12.5237C9.02732 12.4272 8.58186 12.1891 8.23223 11.8395C7.8826 11.4899 7.6445 11.0444 7.54804 10.5595C7.45157 10.0745 7.50108 9.57185 7.6903 9.11504C7.87952 8.65822 8.19995 8.26778 8.61107 7.99307C9.0222 7.71837 9.50555 7.57175 10 7.57175C10.6628 7.5725 11.2983 7.83614 11.7669 8.30482C12.2356 8.77349 12.4992 9.40894 12.5 10.0717ZM17.8125 6.63425V13.5092C17.8112 14.6692 17.3498 15.7812 16.5296 16.6014C15.7095 17.4216 14.5974 17.8829 13.4375 17.8842H6.5625C5.40258 17.8829 4.29055 17.4216 3.47036 16.6014C2.65017 15.7812 2.18881 14.6692 2.1875 13.5092V6.63425C2.18881 5.47433 2.65017 4.36229 3.47036 3.54211C4.29055 2.72192 5.40258 2.26056 6.5625 2.25925H13.4375C14.5974 2.26056 15.7095 2.72192 16.5296 3.54211C17.3498 4.36229 17.8112 5.47433 17.8125 6.63425ZM13.75 10.0717C13.75 9.33007 13.5301 8.60504 13.118 7.98836C12.706 7.37167 12.1203 6.89103 11.4351 6.6072C10.7498 6.32337 9.99584 6.24911 9.26841 6.3938C8.54098 6.5385 7.8728 6.89565 7.34835 7.4201C6.8239 7.94454 6.46675 8.61273 6.32206 9.34016C6.17736 10.0676 6.25162 10.8216 6.53545 11.5068C6.81928 12.192 7.29993 12.7777 7.91661 13.1898C8.5333 13.6018 9.25832 13.8217 10 13.8217C10.9942 13.8206 11.9474 13.4252 12.6504 12.7222C13.3534 12.0191 13.7489 11.066 13.75 10.0717ZM15 6.00925C15 5.82383 14.945 5.64257 14.842 5.4884C14.739 5.33423 14.5926 5.21407 14.4213 5.14311C14.25 5.07215 14.0615 5.05359 13.8796 5.08976C13.6977 5.12593 13.5307 5.21522 13.3996 5.34633C13.2685 5.47745 13.1792 5.64449 13.143 5.82635C13.1068 6.00821 13.1254 6.19671 13.1964 6.36801C13.2673 6.53932 13.3875 6.68574 13.5417 6.78875C13.6958 6.89176 13.8771 6.94675 14.0625 6.94675C14.3111 6.94675 14.5496 6.84797 14.7254 6.67216C14.9012 6.49634 15 6.25789 15 6.00925Z" fill="white"/>
</g>
</svg>
