<svg width="146" height="45" viewBox="0 0 146 45" fill="none" xmlns="http://www.w3.org/2000/svg">
<path d="M25.5814 9.12346C34.2318 8.48645 39.5357 18.4111 34.1991 25.249L25.8618 35.9317C25.4662 36.4386 24.7019 36.4458 24.2969 35.9464L15.8977 25.5911C10.8092 19.3177 14.8739 9.91197 22.9297 9.31873L25.5814 9.12346Z" fill="#92D2AF"/>
<path d="M19.9423 18.79H17.6923V17.67H21.4823V18.72C21.1557 19.48 20.619 20.72 19.8723 22.44L19.2023 24H17.7223C17.9357 23.4867 18.279 22.6867 18.7523 21.6C19.2857 20.3667 19.6823 19.43 19.9423 18.79ZM24.4992 17.55C25.2726 17.55 25.8992 17.92 26.3792 18.66C26.7792 19.2733 26.9792 20.0033 26.9792 20.85C26.9792 21.8633 26.7259 22.6767 26.2192 23.29C25.7659 23.8433 25.1926 24.12 24.4992 24.12C23.6926 24.12 23.0659 23.7667 22.6192 23.06C22.2392 22.4667 22.0492 21.73 22.0492 20.85C22.0492 19.8633 22.2992 19.0533 22.7992 18.42C23.2459 17.84 23.8126 17.55 24.4992 17.55ZM24.5192 18.75C23.8459 18.75 23.5092 19.43 23.5092 20.79C23.5092 21.4767 23.6059 22.0167 23.7992 22.41C23.9726 22.7633 24.2026 22.94 24.4892 22.94C24.8092 22.94 25.0592 22.75 25.2392 22.37C25.4259 21.99 25.5192 21.4633 25.5192 20.79C25.5192 19.43 25.1859 18.75 24.5192 18.75ZM29.2238 24L32.1338 18.35H33.1838L30.2738 24H29.2238ZM30.3238 19.88C30.3238 20.3667 30.2138 20.7567 29.9938 21.05C29.7738 21.3367 29.4771 21.48 29.1038 21.48C28.7104 21.48 28.4004 21.34 28.1738 21.06C27.9538 20.7733 27.8438 20.3833 27.8438 19.89C27.8438 19.4233 27.9571 19.0533 28.1838 18.78C28.4104 18.5067 28.7171 18.37 29.1038 18.37C29.4638 18.37 29.7571 18.51 29.9837 18.79C30.2104 19.07 30.3238 19.4333 30.3238 19.88ZM29.5438 19.9C29.5438 19.6667 29.4971 19.47 29.4038 19.31C29.3171 19.15 29.2104 19.07 29.0838 19.07C28.9504 19.07 28.8371 19.15 28.7438 19.31C28.6571 19.4633 28.6138 19.66 28.6138 19.9C28.6138 20.16 28.6571 20.3733 28.7438 20.54C28.8304 20.7 28.9438 20.78 29.0838 20.78C29.2171 20.78 29.3271 20.6967 29.4138 20.53C29.5004 20.3633 29.5438 20.1533 29.5438 19.9ZM34.5038 22.44C34.5038 22.9267 34.3938 23.3167 34.1738 23.61C33.9538 23.8967 33.6571 24.04 33.2838 24.04C32.8904 24.04 32.5804 23.9 32.3538 23.62C32.1338 23.3333 32.0238 22.9433 32.0238 22.45C32.0238 21.9833 32.1371 21.6133 32.3638 21.34C32.5904 21.0667 32.8971 20.93 33.2838 20.93C33.6438 20.93 33.9371 21.07 34.1638 21.35C34.3904 21.63 34.5038 21.9933 34.5038 22.44ZM33.7338 22.46C33.7338 22.2267 33.6871 22.03 33.5938 21.87C33.5071 21.71 33.3971 21.63 33.2638 21.63C33.1304 21.63 33.0171 21.71 32.9238 21.87C32.8371 22.03 32.7938 22.2267 32.7938 22.46C32.7938 22.72 32.8371 22.9333 32.9238 23.1C33.0104 23.26 33.1238 23.34 33.2638 23.34C33.3971 23.34 33.5071 23.2567 33.5938 23.09C33.6871 22.9233 33.7338 22.7133 33.7338 22.46Z" fill="#075300"/>
<rect x="24" y="38" width="129" height="7" rx="3.5" fill="#92D2AF"/>
</svg>
