<svg width="172" height="31" viewBox="0 0 172 31" fill="none" xmlns="http://www.w3.org/2000/svg">
<path d="M59.6719 22.1719C59.1979 22.1719 58.7917 22.0052 58.4531 21.6719C58.1146 21.3385 57.9479 20.9323 57.9531 20.4531C57.9479 19.9844 58.1146 19.5833 58.4531 19.25C58.7917 18.9167 59.1979 18.75 59.6719 18.75C60.1302 18.75 60.5286 18.9167 60.8672 19.25C61.2109 19.5833 61.3854 19.9844 61.3906 20.4531C61.3854 20.7708 61.3021 21.0599 61.1406 21.3203C60.9844 21.5807 60.776 21.7891 60.5156 21.9453C60.2604 22.0964 59.9792 22.1719 59.6719 22.1719ZM59.6719 13.6094C59.1979 13.6094 58.7917 13.4427 58.4531 13.1094C58.1146 12.7708 57.9479 12.3646 57.9531 11.8906C57.9479 11.4219 58.1146 11.0208 58.4531 10.6875C58.7917 10.349 59.1979 10.1797 59.6719 10.1797C60.1302 10.1797 60.5286 10.349 60.8672 10.6875C61.2109 11.0208 61.3854 11.4219 61.3906 11.8906C61.3854 12.2031 61.3021 12.4896 61.1406 12.75C60.9844 13.0104 60.776 13.2187 60.5156 13.375C60.2604 13.5312 59.9792 13.6094 59.6719 13.6094ZM70.0294 30.668C69.0614 30.668 68.1521 30.5653 67.3014 30.36C66.4508 30.1547 65.7028 29.8393 65.0574 29.414C64.4268 28.9887 63.9281 28.4387 63.5614 27.764C63.2094 27.0893 63.0334 26.29 63.0334 25.366C63.0334 24.4127 63.2314 23.5693 63.6274 22.836C64.0234 22.1173 64.5294 21.4867 65.1454 20.944C65.7614 20.3867 66.4141 19.888 67.1034 19.448C67.8074 18.9933 68.4674 18.5607 69.0834 18.15C69.6994 17.7393 70.2054 17.3213 70.6014 16.896C70.9974 16.456 71.1954 15.972 71.1954 15.444C71.1954 15.2533 71.1441 15.0773 71.0414 14.916C70.9534 14.74 70.7994 14.6007 70.5794 14.498C70.3741 14.3807 70.0808 14.322 69.6994 14.322C69.4501 14.322 69.1934 14.3513 68.9294 14.41C68.6654 14.454 68.4088 14.52 68.1594 14.608C67.9101 14.6813 67.6754 14.7767 67.4554 14.894C67.8368 15.202 68.2108 15.5467 68.5774 15.928C68.9588 16.2947 69.3034 16.654 69.6114 17.006C69.9341 17.3433 70.1834 17.6367 70.3594 17.886C70.6968 18.062 71.0634 18.2233 71.4594 18.37C71.8554 18.502 72.2734 18.6193 72.7134 18.722C73.1681 18.8247 73.6374 18.9053 74.1214 18.964C74.6054 19.008 75.1041 19.03 75.6174 19.03C76.1748 19.03 76.5708 19.1767 76.8054 19.47C77.0401 19.7487 77.1574 20.1007 77.1574 20.526C77.1574 20.9807 77.0034 21.362 76.6954 21.67C76.3874 21.9633 75.9548 22.11 75.3974 22.11C74.1801 22.11 73.1388 22.022 72.2734 21.846C71.4228 21.67 70.6528 21.406 69.9634 21.054C69.2888 20.6873 68.5921 20.24 67.8734 19.712C67.6974 19.404 67.4408 19.0667 67.1034 18.7C66.7661 18.3187 66.4214 17.9593 66.0694 17.622C65.7321 17.2847 65.4461 17.0207 65.2114 16.83C65.1674 16.786 65.0941 16.6393 64.9914 16.39C64.8888 16.126 64.7934 15.8473 64.7054 15.554C64.6321 15.2607 64.5954 15.0553 64.5954 14.938C64.5954 14.6447 64.7348 14.3147 65.0134 13.948C65.2921 13.5667 65.6808 13.2073 66.1794 12.87C66.6928 12.518 67.2868 12.232 67.9614 12.012C68.6361 11.7773 69.3694 11.66 70.1614 11.66C71.5988 11.66 72.6328 11.968 73.2634 12.584C73.9088 13.1853 74.2314 13.9627 74.2314 14.916C74.2314 15.796 74.0334 16.5807 73.6374 17.27C73.2561 17.9593 72.7574 18.59 72.1414 19.162C71.5254 19.734 70.8728 20.262 70.1834 20.746C69.5088 21.23 68.8634 21.6993 68.2474 22.154C67.6314 22.6233 67.1254 23.0927 66.7294 23.562C66.3481 24.046 66.1574 24.5667 66.1574 25.124C66.1574 25.5933 66.2748 25.982 66.5094 26.29C66.7588 26.6127 67.0741 26.8693 67.4554 27.06C67.8368 27.2507 68.2548 27.3827 68.7094 27.456C69.1788 27.544 69.6334 27.588 70.0734 27.588C70.5281 27.588 70.9974 27.5513 71.4814 27.478C71.9801 27.4047 72.4934 27.2873 73.0214 27.126C73.5641 26.9793 74.1214 26.7887 74.6934 26.554L75.6174 29.194C75.0601 29.4873 74.4661 29.744 73.8354 29.964C73.2048 30.1987 72.5668 30.3747 71.9214 30.492C71.2761 30.6093 70.6454 30.668 70.0294 30.668ZM75.4043 22.11L75.6243 19.03C76.5043 19.03 77.179 18.986 77.6483 18.898C78.1176 18.81 78.4403 18.6487 78.6163 18.414C78.807 18.1647 78.9023 17.8127 78.9023 17.358C78.9023 16.9473 78.8436 16.456 78.7263 15.884C78.6236 15.312 78.4843 14.718 78.3083 14.102C78.147 13.486 77.971 12.9213 77.7803 12.408L80.8163 11.572C81.007 12.0707 81.1903 12.65 81.3663 13.31C81.5423 13.97 81.689 14.652 81.8063 15.356C81.9236 16.0453 81.9823 16.7127 81.9823 17.358C81.9823 18.3553 81.821 19.1693 81.4983 19.8C81.1756 20.416 80.721 20.8927 80.1343 21.23C79.5623 21.5673 78.873 21.802 78.0663 21.934C77.2596 22.0513 76.3723 22.11 75.4043 22.11ZM80.8383 27.214C80.413 27.214 80.0463 27.06 79.7383 26.752C79.445 26.4587 79.2983 26.1067 79.2983 25.696C79.2983 25.2707 79.445 24.904 79.7383 24.596C80.0463 24.288 80.413 24.134 80.8383 24.134C81.249 24.134 81.601 24.288 81.8943 24.596C82.1876 24.904 82.3343 25.2707 82.3343 25.696C82.3343 26.1067 82.1876 26.4587 81.8943 26.752C81.601 27.06 81.249 27.214 80.8383 27.214ZM77.0323 27.214C76.607 27.214 76.2403 27.06 75.9323 26.752C75.639 26.4587 75.4923 26.1067 75.4923 25.696C75.4923 25.2707 75.639 24.904 75.9323 24.596C76.2403 24.288 76.607 24.134 77.0323 24.134C77.443 24.134 77.795 24.288 78.0883 24.596C78.3816 24.904 78.5283 25.2707 78.5283 25.696C78.5283 26.1067 78.3816 26.4587 78.0883 26.752C77.795 27.06 77.443 27.214 77.0323 27.214ZM83.6625 27.06L82.5405 24.244C83.8019 23.804 84.8212 23.32 85.5985 22.792C86.3905 22.264 86.9699 21.6993 87.3365 21.098C87.7179 20.4967 87.9085 19.8733 87.9085 19.228C87.9085 18.8173 87.8499 18.392 87.7325 17.952C87.6152 17.4973 87.4465 17.0207 87.2265 16.522C87.0212 16.0233 86.7719 15.5027 86.4785 14.96L89.3605 13.574C89.8739 14.5567 90.2699 15.4953 90.5485 16.39C90.8419 17.2847 90.9885 18.1207 90.9885 18.898C90.9885 19.6167 90.8932 20.306 90.7025 20.966C90.5265 21.626 90.2479 22.242 89.8665 22.814C89.4999 23.4007 89.0232 23.9507 88.4365 24.464C87.8499 24.9773 87.1605 25.4467 86.3685 25.872C85.5765 26.312 84.6745 26.708 83.6625 27.06ZM99.2865 22.11C97.9225 22.11 96.8665 21.9707 96.1185 21.692C95.3852 21.4133 94.8718 20.9807 94.5785 20.394C94.2852 19.7927 94.1165 19.0373 94.0725 18.128L93.6105 5.896H96.6905L97.1525 16.654C97.1818 17.3287 97.2552 17.8347 97.3725 18.172C97.4898 18.5093 97.7098 18.7367 98.0325 18.854C98.3698 18.9713 98.8612 19.03 99.5065 19.03C100.064 19.03 100.46 19.1767 100.695 19.47C100.944 19.7487 101.069 20.1007 101.069 20.526C101.069 20.9807 100.915 21.362 100.607 21.67C100.299 21.9633 99.8585 22.11 99.2865 22.11ZM99.3164 22.11L99.5364 19.03C100.02 19.03 100.416 18.9933 100.724 18.92C101.032 18.832 101.282 18.6487 101.472 18.37C101.678 18.0767 101.854 17.644 102 17.072C102.162 16.4853 102.338 15.6933 102.528 14.696L105.388 15.224C105.33 15.5467 105.249 15.95 105.146 16.434C105.058 16.918 105.014 17.336 105.014 17.688C105.014 17.9667 105.066 18.2087 105.168 18.414C105.286 18.6047 105.476 18.7587 105.74 18.876C106.019 18.9787 106.4 19.03 106.884 19.03C107.266 19.03 107.588 18.9933 107.852 18.92C108.131 18.832 108.366 18.6487 108.556 18.37C108.762 18.0767 108.938 17.6293 109.084 17.028C109.246 16.412 109.4 15.5833 109.546 14.542L112.45 15.004C112.392 15.3413 112.333 15.7007 112.274 16.082C112.216 16.4633 112.164 16.8153 112.12 17.138C112.076 17.4607 112.054 17.7247 112.054 17.93C112.054 18.1207 112.106 18.304 112.208 18.48C112.326 18.6413 112.531 18.7733 112.824 18.876C113.132 18.9787 113.558 19.03 114.1 19.03C114.76 19.03 115.244 18.8907 115.552 18.612C115.875 18.3187 116.036 17.8787 116.036 17.292C116.036 16.9547 116.029 16.5953 116.014 16.214C116 15.818 115.97 15.378 115.926 14.894C115.897 14.3953 115.838 13.8307 115.75 13.2L118.588 12.98C118.691 14.2413 118.808 15.268 118.94 16.06C119.072 16.852 119.248 17.468 119.468 17.908C119.703 18.3333 120.011 18.6267 120.392 18.788C120.788 18.9493 121.302 19.03 121.932 19.03C122.49 19.03 122.886 19.1767 123.12 19.47C123.37 19.7487 123.494 20.1007 123.494 20.526C123.494 20.9807 123.34 21.362 123.032 21.67C122.739 21.9633 122.299 22.11 121.712 22.11C121.316 22.11 120.906 22.0733 120.48 22C120.055 21.9413 119.644 21.8167 119.248 21.626C118.852 21.4207 118.5 21.1273 118.192 20.746C117.884 20.3647 117.642 19.8587 117.466 19.228L117.862 19.36C117.657 20.0933 117.378 20.658 117.026 21.054C116.674 21.45 116.242 21.7287 115.728 21.89C115.215 22.0367 114.599 22.11 113.88 22.11C113.22 22.11 112.634 22.022 112.12 21.846C111.607 21.67 111.196 21.384 110.888 20.988C110.595 20.5773 110.441 20.0273 110.426 19.338H111.174C110.881 20.1593 110.544 20.768 110.162 21.164C109.781 21.56 109.319 21.8167 108.776 21.934C108.234 22.0513 107.552 22.11 106.73 22.11C106.232 22.11 105.74 22.0587 105.256 21.956C104.772 21.8387 104.34 21.582 103.958 21.186C103.577 20.7753 103.298 20.13 103.122 19.25L104.31 19.206C104.002 20.0713 103.599 20.7093 103.1 21.12C102.616 21.5307 102.059 21.802 101.428 21.934C100.798 22.0513 100.094 22.11 99.3164 22.11ZM110.602 8.492C110.236 8.492 109.913 8.35267 109.634 8.074C109.37 7.79533 109.238 7.46533 109.238 7.084C109.238 6.70267 109.37 6.38 109.634 6.116C109.913 5.852 110.236 5.72 110.602 5.72C110.984 5.72 111.306 5.852 111.57 6.116C111.834 6.38 111.966 6.70267 111.966 7.084C111.966 7.46533 111.834 7.79533 111.57 8.074C111.306 8.35267 110.984 8.492 110.602 8.492ZM108.842 11.396C108.476 11.396 108.153 11.2567 107.874 10.978C107.61 10.6993 107.478 10.3693 107.478 9.988C107.478 9.60667 107.61 9.284 107.874 9.02C108.153 8.756 108.476 8.624 108.842 8.624C109.224 8.624 109.546 8.756 109.81 9.02C110.074 9.284 110.206 9.60667 110.206 9.988C110.206 10.3693 110.074 10.6993 109.81 10.978C109.546 11.2567 109.224 11.396 108.842 11.396ZM112.252 11.396C111.886 11.396 111.563 11.2567 111.284 10.978C111.02 10.6993 110.888 10.3693 110.888 9.988C110.888 9.60667 111.02 9.284 111.284 9.02C111.563 8.756 111.886 8.624 112.252 8.624C112.634 8.624 112.956 8.756 113.22 9.02C113.484 9.284 113.616 9.60667 113.616 9.988C113.616 10.3693 113.484 10.6993 113.22 10.978C112.956 11.2567 112.634 11.396 112.252 11.396ZM121.725 22.11L121.945 19.03C122.311 19.03 122.59 18.9567 122.781 18.81C122.971 18.6633 123.162 18.4067 123.353 18.04C123.543 17.6733 123.807 17.1747 124.145 16.544C124.511 15.84 124.893 15.2533 125.289 14.784C125.685 14.3 126.081 13.9187 126.477 13.64C126.887 13.3467 127.291 13.1413 127.687 13.024C128.097 12.892 128.501 12.826 128.897 12.826C129.439 12.826 129.945 12.9433 130.415 13.178C130.899 13.398 131.361 13.7867 131.801 14.344C132.241 14.8867 132.659 15.6347 133.055 16.588C133.333 17.248 133.612 17.754 133.891 18.106C134.169 18.458 134.455 18.7 134.749 18.832C135.057 18.964 135.365 19.03 135.673 19.03C136.23 19.03 136.626 19.1767 136.861 19.47C137.095 19.7487 137.213 20.1007 137.213 20.526C137.213 20.9807 137.059 21.362 136.751 21.67C136.443 21.9633 136.01 22.11 135.453 22.11C134.734 22.11 134.081 21.9927 133.495 21.758C132.908 21.5233 132.446 21.1713 132.109 20.702L132.747 20.218C132.615 20.526 132.417 20.8487 132.153 21.186C131.903 21.5233 131.573 21.8093 131.163 22.044C130.767 22.2787 130.29 22.396 129.733 22.396C129.366 22.396 128.933 22.3227 128.435 22.176C127.951 22.044 127.445 21.8167 126.917 21.494C126.403 21.1567 125.927 20.702 125.487 20.13C125.208 20.6433 124.9 21.0467 124.563 21.34C124.225 21.6187 123.829 21.8167 123.375 21.934C122.92 22.0513 122.37 22.11 121.725 22.11ZM126.763 17.534C126.909 17.754 127.085 17.974 127.291 18.194C127.496 18.414 127.723 18.612 127.973 18.788C128.222 18.9493 128.486 19.0813 128.765 19.184C129.058 19.2867 129.344 19.338 129.623 19.338C129.916 19.338 130.158 19.228 130.349 19.008C130.539 18.7733 130.547 18.4287 130.371 17.974C130.297 17.7833 130.195 17.5707 130.063 17.336C129.945 17.0867 129.806 16.852 129.645 16.632C129.498 16.412 129.329 16.2287 129.139 16.082C128.963 15.9353 128.779 15.862 128.589 15.862C128.398 15.862 128.2 15.9207 127.995 16.038C127.789 16.1553 127.584 16.3387 127.379 16.588C127.173 16.8227 126.968 17.138 126.763 17.534ZM135.453 22.11L135.673 19.03C136.348 19.03 136.832 18.964 137.125 18.832C137.418 18.6853 137.594 18.4213 137.653 18.04C137.712 17.644 137.726 17.072 137.697 16.324L137.301 5.896H140.403L140.843 16.544C140.872 17.3947 140.836 18.1647 140.733 18.854C140.645 19.5287 140.418 20.108 140.051 20.592C139.699 21.076 139.149 21.45 138.401 21.714C137.668 21.978 136.685 22.11 135.453 22.11ZM143.744 22L143.282 5.896H146.362L146.824 22H143.744Z" fill="#00260F"/>
<path d="M158.234 16.7573C156.841 16.0001 156.841 13.9999 158.234 13.2427L164.795 9.67746C166.128 8.9533 167.75 9.91806 167.75 11.4348V18.5652C167.75 20.0819 166.128 21.0467 164.795 20.3225L158.234 16.7573Z" fill="#4EB44C"/>
</svg>
