<svg width="95" height="23" viewBox="0 0 95 23" fill="none" xmlns="http://www.w3.org/2000/svg">
<rect x="0.5" y="0.5" width="94" height="22" rx="11" fill="#003214" stroke="#C3FFC1"/>
<path d="M21.234 14.748C21.234 14.61 21.246 14.448 21.27 14.262C21.294 14.076 21.339 13.866 21.405 13.632C21.471 13.392 21.57 13.125 21.702 12.831L22.809 13.218C22.743 13.404 22.686 13.575 22.638 13.731C22.59 13.881 22.554 14.022 22.53 14.154C22.506 14.28 22.494 14.406 22.494 14.532C22.494 14.802 22.56 15.036 22.692 15.234C22.83 15.438 23.016 15.594 23.25 15.702C23.49 15.816 23.766 15.873 24.078 15.873C24.588 15.873 24.978 15.789 25.248 15.621C25.524 15.459 25.71 15.201 25.806 14.847C25.908 14.487 25.947 14.022 25.923 13.452L25.743 8.412H27.012L27.147 12.669C27.159 12.969 27.201 13.2 27.273 13.362C27.345 13.524 27.456 13.635 27.606 13.695C27.762 13.755 27.963 13.785 28.209 13.785C28.437 13.785 28.599 13.845 28.695 13.965C28.791 14.079 28.839 14.223 28.839 14.397C28.839 14.583 28.776 14.739 28.65 14.865C28.524 14.985 28.347 15.045 28.119 15.045C27.987 15.045 27.846 15.027 27.696 14.991C27.546 14.955 27.402 14.898 27.264 14.82C27.126 14.742 27.006 14.64 26.904 14.514C26.802 14.382 26.733 14.22 26.697 14.028L27.183 13.785C27.183 14.391 27.111 14.904 26.967 15.324C26.829 15.744 26.625 16.083 26.355 16.341C26.091 16.599 25.764 16.785 25.374 16.899C24.99 17.019 24.546 17.079 24.042 17.079C23.658 17.079 23.295 17.031 22.953 16.935C22.617 16.839 22.32 16.695 22.062 16.503C21.804 16.311 21.6 16.068 21.45 15.774C21.306 15.486 21.234 15.144 21.234 14.748ZM28.1191 15.045L28.2091 13.785H29.4691C29.6791 13.785 29.8381 13.773 29.9461 13.749C30.0601 13.725 30.1381 13.689 30.1801 13.641C30.2221 13.587 30.2431 13.524 30.2431 13.452C30.2431 13.344 30.1951 13.218 30.0991 13.074C30.0091 12.93 29.8891 12.78 29.7391 12.624C29.5951 12.468 29.4421 12.312 29.2801 12.156C29.1181 11.994 28.9621 11.844 28.8121 11.706C28.6681 11.568 28.5481 11.448 28.4521 11.346C28.3621 11.238 28.3171 11.16 28.3171 11.112C28.3171 10.944 28.3261 10.812 28.3441 10.716C28.3621 10.614 28.3861 10.533 28.4161 10.473C28.4521 10.413 28.4911 10.362 28.5331 10.32C28.6351 10.218 28.7881 10.104 28.9921 9.978C29.1961 9.846 29.4361 9.708 29.7121 9.564C29.9941 9.414 30.3091 9.258 30.6571 9.096C31.0051 8.928 31.3741 8.754 31.7641 8.574L32.2771 9.672C31.8811 9.846 31.5271 10.008 31.2151 10.158C30.9091 10.302 30.6331 10.437 30.3871 10.563C30.1471 10.683 29.9311 10.797 29.7391 10.905C29.5531 11.013 29.3851 11.115 29.2351 11.211L29.3251 10.545C29.5831 10.767 29.8171 10.977 30.0271 11.175C30.2371 11.373 30.4321 11.571 30.6121 11.769C30.7921 11.967 30.9601 12.171 31.1161 12.381C31.2781 12.591 31.4341 12.819 31.5841 13.065C31.7161 13.275 31.8511 13.431 31.9891 13.533C32.1331 13.635 32.2711 13.704 32.4031 13.74C32.5411 13.77 32.6641 13.785 32.7721 13.785C33.0001 13.785 33.1621 13.845 33.2581 13.965C33.3601 14.079 33.4111 14.223 33.4111 14.397C33.4111 14.583 33.3481 14.739 33.2221 14.865C33.0961 14.985 32.9161 15.045 32.6821 15.045C32.4841 15.045 32.2711 15.012 32.0431 14.946C31.8151 14.874 31.6021 14.76 31.4041 14.604C31.2061 14.448 31.0561 14.235 30.9541 13.965L31.4401 14.001C31.3501 14.193 31.2421 14.358 31.1161 14.496C30.9961 14.628 30.8521 14.736 30.6841 14.82C30.5161 14.898 30.3241 14.955 30.1081 14.991C29.8921 15.027 29.6491 15.045 29.3791 15.045H28.1191ZM32.6895 15.045L32.7795 13.785C33.0555 13.785 33.2535 13.758 33.3735 13.704C33.4935 13.644 33.5655 13.536 33.5895 13.38C33.6135 13.218 33.6195 12.984 33.6075 12.678L33.4455 8.412H34.7145L34.8945 12.768C34.9065 13.116 34.8915 13.431 34.8495 13.713C34.8135 13.989 34.7205 14.226 34.5705 14.424C34.4265 14.622 34.2015 14.775 33.8955 14.883C33.5955 14.991 33.1935 15.045 32.6895 15.045ZM36.0813 15L35.8923 8.412H37.1523L37.3413 15H36.0813ZM42.3166 15.027C41.9806 15.027 41.6776 14.97 41.4076 14.856C41.1436 14.736 40.9336 14.559 40.7776 14.325C40.6276 14.085 40.5526 13.788 40.5526 13.434C40.5526 13.08 40.6726 12.687 40.9126 12.255C41.1526 11.817 41.5546 11.379 42.1186 10.941L42.0286 11.769L41.2186 11.139L42.0646 10.104C42.5206 10.452 42.9106 10.791 43.2346 11.121C43.5646 11.445 43.8166 11.778 43.9906 12.12C44.1646 12.462 44.2516 12.825 44.2516 13.209C44.2516 13.395 44.2216 13.596 44.1616 13.812C44.1016 14.022 43.9996 14.22 43.8556 14.406C43.7116 14.586 43.5136 14.736 43.2616 14.856C43.0156 14.97 42.7006 15.027 42.3166 15.027ZM42.4156 13.785C42.5656 13.785 42.6856 13.755 42.7756 13.695C42.8716 13.635 42.9436 13.557 42.9916 13.461C43.0396 13.365 43.0636 13.263 43.0636 13.155C43.0636 13.047 43.0396 12.93 42.9916 12.804C42.9436 12.678 42.8506 12.537 42.7126 12.381C42.5746 12.225 42.3706 12.045 42.1006 11.841L42.7846 11.751C42.5386 11.919 42.3406 12.09 42.1906 12.264C42.0406 12.438 41.9326 12.606 41.8666 12.768C41.8066 12.924 41.7766 13.068 41.7766 13.2C41.7766 13.392 41.8396 13.539 41.9656 13.641C42.0916 13.737 42.2416 13.785 42.4156 13.785ZM43.1536 9.429C42.9796 9.429 42.8296 9.369 42.7036 9.249C42.5836 9.123 42.5236 8.976 42.5236 8.808C42.5236 8.634 42.5836 8.484 42.7036 8.358C42.8296 8.232 42.9796 8.169 43.1536 8.169C43.3216 8.169 43.4656 8.232 43.5856 8.358C43.7056 8.484 43.7656 8.634 43.7656 8.808C43.7656 8.976 43.7056 9.123 43.5856 9.249C43.4656 9.369 43.3216 9.429 43.1536 9.429ZM41.5966 9.42C41.4226 9.42 41.2726 9.36 41.1466 9.24C41.0266 9.114 40.9666 8.967 40.9666 8.799C40.9666 8.625 41.0266 8.475 41.1466 8.349C41.2726 8.223 41.4226 8.16 41.5966 8.16C41.7646 8.16 41.9086 8.223 42.0286 8.349C42.1486 8.475 42.2086 8.625 42.2086 8.799C42.2086 8.967 42.1486 9.114 42.0286 9.24C41.9086 9.36 41.7646 9.42 41.5966 9.42ZM46.5079 13.785C46.7779 13.785 46.9849 13.761 47.1289 13.713C47.2729 13.665 47.3719 13.602 47.4259 13.524C47.4799 13.446 47.5069 13.362 47.5069 13.272C47.5069 13.128 47.4649 12.96 47.3809 12.768C47.3029 12.576 47.2039 12.375 47.0839 12.165C46.9639 11.955 46.8379 11.754 46.7059 11.562C46.5799 11.37 46.4659 11.202 46.3639 11.058L47.4349 10.347C47.6929 10.695 47.9149 11.04 48.1009 11.382C48.2869 11.718 48.4369 12.03 48.5509 12.318C48.6709 12.606 48.7549 12.852 48.8029 13.056C48.8509 13.248 48.9229 13.398 49.0189 13.506C49.1209 13.608 49.2379 13.68 49.3699 13.722C49.5019 13.764 49.6339 13.785 49.7659 13.785C49.9939 13.785 50.1559 13.845 50.2519 13.965C50.3539 14.079 50.4049 14.223 50.4049 14.397C50.4049 14.583 50.3419 14.739 50.2159 14.865C50.0959 14.985 49.9159 15.045 49.6759 15.045C49.4119 15.045 49.1809 15.009 48.9829 14.937C48.7849 14.865 48.6169 14.751 48.4789 14.595C48.3409 14.439 48.2239 14.241 48.1279 14.001L48.6769 14.118C48.6289 14.286 48.5179 14.442 48.3439 14.586C48.1759 14.724 47.9509 14.838 47.6689 14.928C47.3929 15.012 47.0659 15.054 46.6879 15.054C46.5079 15.054 46.3069 15.039 46.0849 15.009C45.8689 14.979 45.6529 14.934 45.4369 14.874C45.2269 14.814 45.0349 14.736 44.8609 14.64L45.3019 13.497C45.5239 13.593 45.7369 13.665 45.9409 13.713C46.1509 13.761 46.3399 13.785 46.5079 13.785ZM53.3505 15.072C53.0805 15.072 52.8015 15.039 52.5135 14.973C52.2315 14.907 51.9585 14.808 51.6945 14.676C51.4305 14.544 51.1935 14.379 50.9835 14.181C50.7735 13.983 50.6055 13.755 50.4795 13.497C50.3595 13.233 50.2995 12.936 50.2995 12.606C50.2995 12.336 50.3565 12.087 50.4705 11.859C50.5845 11.631 50.7525 11.448 50.9745 11.31C51.2025 11.166 51.4785 11.094 51.8025 11.094C52.1085 11.094 52.3725 11.169 52.5945 11.319C52.8225 11.463 52.9995 11.652 53.1255 11.886C53.2515 12.114 53.3145 12.354 53.3145 12.606C53.3145 13.008 53.2155 13.362 53.0175 13.668C52.8195 13.968 52.5465 14.22 52.1985 14.424C51.8565 14.628 51.4695 14.784 51.0375 14.892C50.6055 14.994 50.1555 15.045 49.6875 15.045L49.7775 13.785C50.1195 13.785 50.4165 13.776 50.6685 13.758C50.9265 13.74 51.1485 13.701 51.3345 13.641C51.5205 13.581 51.6825 13.491 51.8205 13.371C51.9585 13.251 52.0635 13.119 52.1355 12.975C52.2135 12.825 52.2525 12.678 52.2525 12.534C52.2525 12.438 52.2375 12.348 52.2075 12.264C52.1835 12.18 52.1415 12.111 52.0815 12.057C52.0275 11.997 51.9555 11.967 51.8655 11.967C51.7695 11.967 51.6885 11.997 51.6225 12.057C51.5625 12.111 51.5145 12.183 51.4785 12.273C51.4485 12.363 51.4335 12.459 51.4335 12.561C51.4335 12.771 51.4875 12.96 51.5955 13.128C51.7095 13.296 51.8595 13.437 52.0455 13.551C52.2315 13.665 52.4355 13.752 52.6575 13.812C52.8855 13.872 53.1165 13.902 53.3505 13.902C53.5365 13.902 53.6685 13.872 53.7465 13.812C53.8245 13.752 53.8635 13.671 53.8635 13.569C53.8635 13.497 53.8455 13.422 53.8095 13.344C53.7795 13.26 53.7105 13.158 53.6025 13.038C53.4945 12.918 53.3295 12.771 53.1075 12.597C52.8855 12.417 52.5885 12.195 52.2165 11.931C51.8445 11.667 51.3765 11.346 50.8125 10.968L51.5055 9.987C52.1415 10.437 52.6725 10.83 53.0985 11.166C53.5305 11.502 53.8785 11.796 54.1425 12.048C54.4065 12.3 54.6075 12.522 54.7455 12.714C54.8895 12.9 54.9855 13.071 55.0335 13.227C55.0815 13.383 55.1055 13.539 55.1055 13.695C55.1055 13.983 55.0365 14.229 54.8985 14.433C54.7605 14.637 54.5595 14.796 54.2955 14.91C54.0375 15.018 53.7225 15.072 53.3505 15.072ZM58.3061 15.045C57.7481 15.045 57.3161 14.988 57.0101 14.874C56.7101 14.76 56.5001 14.583 56.3801 14.343C56.2601 14.097 56.1911 13.788 56.1731 13.416L55.9841 8.412H57.2441L57.4331 12.813C57.4451 13.089 57.4751 13.296 57.5231 13.434C57.5711 13.572 57.6611 13.665 57.7931 13.713C57.9311 13.761 58.1321 13.785 58.3961 13.785C58.6241 13.785 58.7861 13.845 58.8821 13.965C58.9841 14.079 59.0351 14.223 59.0351 14.397C59.0351 14.583 58.9721 14.739 58.8461 14.865C58.7201 14.985 58.5401 15.045 58.3061 15.045ZM58.3184 15.045L58.4084 13.785C58.6064 13.785 58.7684 13.77 58.8944 13.74C59.0204 13.704 59.1224 13.629 59.2004 13.515C59.2844 13.395 59.3564 13.218 59.4164 12.984C59.4824 12.744 59.5544 12.42 59.6324 12.012L60.8024 12.228C60.7784 12.36 60.7454 12.525 60.7034 12.723C60.6674 12.921 60.6494 13.092 60.6494 13.236C60.6494 13.35 60.6704 13.449 60.7124 13.533C60.7604 13.611 60.8384 13.674 60.9464 13.722C61.0604 13.764 61.2164 13.785 61.4144 13.785C61.5704 13.785 61.7024 13.77 61.8104 13.74C61.9244 13.704 62.0204 13.629 62.0984 13.515C62.1824 13.395 62.2544 13.212 62.3144 12.966C62.3804 12.714 62.4434 12.375 62.5034 11.949L63.6914 12.138C63.6674 12.276 63.6434 12.423 63.6194 12.579C63.5954 12.735 63.5744 12.879 63.5564 13.011C63.5384 13.143 63.5294 13.251 63.5294 13.335C63.5294 13.413 63.5504 13.488 63.5924 13.56C63.6404 13.626 63.7244 13.68 63.8444 13.722C63.9704 13.764 64.1444 13.785 64.3664 13.785C64.6364 13.785 64.8344 13.728 64.9604 13.614C65.0924 13.494 65.1584 13.314 65.1584 13.074C65.1584 12.936 65.1554 12.789 65.1494 12.633C65.1434 12.471 65.1314 12.291 65.1134 12.093C65.1014 11.889 65.0774 11.658 65.0414 11.4L66.2024 11.31C66.2444 11.826 66.2924 12.246 66.3464 12.57C66.4004 12.894 66.4724 13.146 66.5624 13.326C66.6584 13.5 66.7844 13.62 66.9404 13.686C67.1024 13.752 67.3124 13.785 67.5704 13.785C67.7984 13.785 67.9604 13.845 68.0564 13.965C68.1584 14.079 68.2094 14.223 68.2094 14.397C68.2094 14.583 68.1464 14.739 68.0204 14.865C67.9004 14.985 67.7204 15.045 67.4804 15.045C67.3184 15.045 67.1504 15.03 66.9764 15C66.8024 14.976 66.6344 14.925 66.4724 14.847C66.3104 14.763 66.1664 14.643 66.0404 14.487C65.9144 14.331 65.8154 14.124 65.7434 13.866L65.9054 13.92C65.8214 14.22 65.7074 14.451 65.5634 14.613C65.4194 14.775 65.2424 14.889 65.0324 14.955C64.8224 15.015 64.5704 15.045 64.2764 15.045C64.0064 15.045 63.7664 15.009 63.5564 14.937C63.3464 14.865 63.1784 14.748 63.0524 14.586C62.9324 14.418 62.8694 14.193 62.8634 13.911H63.1694C63.0494 14.247 62.9114 14.496 62.7554 14.658C62.5994 14.82 62.4104 14.925 62.1884 14.973C61.9664 15.021 61.6874 15.045 61.3514 15.045C61.1474 15.045 60.9464 15.024 60.7484 14.982C60.5504 14.934 60.3734 14.829 60.2174 14.667C60.0614 14.499 59.9474 14.235 59.8754 13.875L60.3614 13.857C60.2354 14.211 60.0704 14.472 59.8664 14.64C59.6684 14.808 59.4404 14.919 59.1824 14.973C58.9244 15.021 58.6364 15.045 58.3184 15.045ZM62.9354 9.474C62.7854 9.474 62.6534 9.417 62.5394 9.303C62.4314 9.189 62.3774 9.054 62.3774 8.898C62.3774 8.742 62.4314 8.61 62.5394 8.502C62.6534 8.394 62.7854 8.34 62.9354 8.34C63.0914 8.34 63.2234 8.394 63.3314 8.502C63.4394 8.61 63.4934 8.742 63.4934 8.898C63.4934 9.054 63.4394 9.189 63.3314 9.303C63.2234 9.417 63.0914 9.474 62.9354 9.474ZM62.2154 10.662C62.0654 10.662 61.9334 10.605 61.8194 10.491C61.7114 10.377 61.6574 10.242 61.6574 10.086C61.6574 9.93 61.7114 9.798 61.8194 9.69C61.9334 9.582 62.0654 9.528 62.2154 9.528C62.3714 9.528 62.5034 9.582 62.6114 9.69C62.7194 9.798 62.7734 9.93 62.7734 10.086C62.7734 10.242 62.7194 10.377 62.6114 10.491C62.5034 10.605 62.3714 10.662 62.2154 10.662ZM63.6104 10.662C63.4604 10.662 63.3284 10.605 63.2144 10.491C63.1064 10.377 63.0524 10.242 63.0524 10.086C63.0524 9.93 63.1064 9.798 63.2144 9.69C63.3284 9.582 63.4604 9.528 63.6104 9.528C63.7664 9.528 63.8984 9.582 64.0064 9.69C64.1144 9.798 64.1684 9.93 64.1684 10.086C64.1684 10.242 64.1144 10.377 64.0064 10.491C63.8984 10.605 63.7664 10.662 63.6104 10.662ZM67.4854 15.045L67.5754 13.785C67.7134 13.785 67.8304 13.752 67.9264 13.686C68.0284 13.614 68.1334 13.497 68.2414 13.335C68.3494 13.167 68.4754 12.942 68.6194 12.66C68.7994 12.3 68.9854 12.018 69.1774 11.814C69.3754 11.61 69.5764 11.466 69.7804 11.382C69.9904 11.292 70.2004 11.247 70.4104 11.247C70.6744 11.247 70.9204 11.304 71.1484 11.418C71.3764 11.532 71.5744 11.688 71.7424 11.886C71.9104 12.078 72.0394 12.3 72.1294 12.552C72.2254 12.798 72.2734 13.053 72.2734 13.317C72.2734 13.635 72.2044 13.923 72.0664 14.181C71.9344 14.433 71.7484 14.634 71.5084 14.784C71.2744 14.928 71.0044 15 70.6984 15C70.4404 15 70.1404 14.955 69.7984 14.865C69.4564 14.775 69.0964 14.586 68.7184 14.298L69.1774 13.209C69.4474 13.395 69.6994 13.53 69.9334 13.614C70.1734 13.698 70.3714 13.74 70.5274 13.74C70.6474 13.74 70.7464 13.728 70.8244 13.704C70.9024 13.68 70.9594 13.641 70.9954 13.587C71.0314 13.533 71.0494 13.461 71.0494 13.371C71.0494 13.245 71.0194 13.116 70.9594 12.984C70.8994 12.852 70.8184 12.741 70.7164 12.651C70.6204 12.555 70.5064 12.507 70.3744 12.507C70.2484 12.507 70.1404 12.555 70.0504 12.651C69.9664 12.741 69.8824 12.873 69.7984 13.047C69.7204 13.215 69.6244 13.413 69.5104 13.641C69.3724 13.917 69.2374 14.148 69.1054 14.334C68.9734 14.514 68.8324 14.658 68.6824 14.766C68.5384 14.868 68.3674 14.94 68.1694 14.982C67.9774 15.024 67.7494 15.045 67.4854 15.045Z" fill="white"/>
</svg>
