<svg width="172" height="28" viewBox="0 0 172 28" fill="none" xmlns="http://www.w3.org/2000/svg">
<path d="M36.4473 22.1719C35.9733 22.1719 35.5671 22.0052 35.2285 21.6719C34.89 21.3385 34.7233 20.9323 34.7285 20.4531C34.7233 19.9844 34.89 19.5833 35.2285 19.25C35.5671 18.9167 35.9733 18.75 36.4473 18.75C36.9056 18.75 37.304 18.9167 37.6426 19.25C37.9863 19.5833 38.1608 19.9844 38.166 20.4531C38.1608 20.7708 38.0775 21.0599 37.916 21.3203C37.7598 21.5807 37.5514 21.7891 37.291 21.9453C37.0358 22.0964 36.7546 22.1719 36.4473 22.1719ZM36.4473 13.6094C35.9733 13.6094 35.5671 13.4427 35.2285 13.1094C34.89 12.7708 34.7233 12.3646 34.7285 11.8906C34.7233 11.4219 34.89 11.0208 35.2285 10.6875C35.5671 10.349 35.9733 10.1797 36.4473 10.1797C36.9056 10.1797 37.304 10.349 37.6426 10.6875C37.9863 11.0208 38.1608 11.4219 38.166 11.8906C38.1608 12.2031 38.0775 12.4896 37.916 12.75C37.7598 13.0104 37.5514 13.2187 37.291 13.375C37.0358 13.5312 36.7546 13.6094 36.4473 13.6094ZM48.9828 22.462L49.5548 19.382C50.9775 19.382 52.2168 19.3453 53.2728 19.272C54.3288 19.184 55.2015 19.0593 55.8908 18.898C56.5948 18.722 57.1155 18.4947 57.4528 18.216C57.8048 17.9373 57.9808 17.6 57.9808 17.204C57.9808 16.676 57.8928 16.0453 57.7168 15.312C57.5408 14.564 57.3135 13.8087 57.0348 13.046L59.9168 12.21C60.1075 12.7087 60.2908 13.2587 60.4668 13.86C60.6428 14.4467 60.7821 15.0407 60.8848 15.642C61.0021 16.2287 61.0608 16.7787 61.0608 17.292C61.0608 18.2013 60.8628 18.986 60.4668 19.646C60.0708 20.2913 59.4108 20.8267 58.4868 21.252C57.5775 21.6627 56.3455 21.9633 54.7908 22.154C53.2361 22.3593 51.3001 22.462 48.9828 22.462ZM48.9608 22.462C47.3768 22.462 46.0348 22.3373 44.9348 22.088C43.8495 21.8533 42.9621 21.516 42.2728 21.076C41.5981 20.6213 41.1068 20.0933 40.7988 19.492C40.4908 18.8907 40.3368 18.2307 40.3368 17.512C40.3368 17.0427 40.3735 16.5733 40.4468 16.104C40.5348 15.62 40.6375 15.1507 40.7548 14.696C40.8868 14.2413 41.0041 13.8307 41.1068 13.464L43.8568 14.102C43.7981 14.366 43.7321 14.652 43.6588 14.96C43.5855 15.268 43.5268 15.5687 43.4828 15.862C43.4388 16.1407 43.4168 16.3973 43.4168 16.632C43.4168 17.1747 43.6075 17.6587 43.9888 18.084C44.3848 18.4947 45.0301 18.8173 45.9248 19.052C46.8195 19.272 48.0221 19.382 49.5328 19.382L49.9728 21.758L48.9608 22.462ZM52.5908 12.408C52.1655 12.408 51.7988 12.2613 51.4908 11.968C51.1975 11.66 51.0508 11.3007 51.0508 10.89C51.0508 10.4647 51.1975 10.098 51.4908 9.79C51.7988 9.482 52.1655 9.328 52.5908 9.328C53.0015 9.328 53.3535 9.482 53.6468 9.79C53.9401 10.098 54.0868 10.4647 54.0868 10.89C54.0868 11.3007 53.9401 11.66 53.6468 11.968C53.3535 12.2613 53.0015 12.408 52.5908 12.408ZM48.7848 12.386C48.3595 12.386 47.9928 12.2393 47.6848 11.946C47.3915 11.638 47.2448 11.2787 47.2448 10.868C47.2448 10.4427 47.3915 10.076 47.6848 9.768C47.9928 9.46 48.3595 9.306 48.7848 9.306C49.1955 9.306 49.5475 9.46 49.8408 9.768C50.1341 10.076 50.2808 10.4427 50.2808 10.868C50.2808 11.2787 50.1341 11.638 49.8408 11.946C49.5475 12.2393 49.1955 12.386 48.7848 12.386ZM69.1439 22.11C67.7799 22.11 66.7239 21.9707 65.9759 21.692C65.2426 21.4133 64.7293 20.9807 64.4359 20.394C64.1426 19.7927 63.9739 19.0373 63.9299 18.128L63.4679 5.896H66.5479L67.0099 16.654C67.0393 17.3287 67.1126 17.8347 67.2299 18.172C67.3473 18.5093 67.5673 18.7367 67.8899 18.854C68.2273 18.9713 68.7186 19.03 69.3639 19.03C69.9213 19.03 70.3173 19.1767 70.5519 19.47C70.8013 19.7487 70.9259 20.1007 70.9259 20.526C70.9259 20.9807 70.7719 21.362 70.4639 21.67C70.1559 21.9633 69.7159 22.11 69.1439 22.11ZM69.1738 22.11L69.3938 19.03C69.9218 19.03 70.3765 18.9787 70.7578 18.876C71.1392 18.7733 71.4618 18.568 71.7258 18.26C71.9898 17.9373 72.2098 17.468 72.3858 16.852C72.5765 16.236 72.7452 15.4147 72.8918 14.388L75.7738 14.872C75.7445 15.092 75.7005 15.3487 75.6418 15.642C75.5978 15.9353 75.5538 16.236 75.5098 16.544C75.4805 16.8373 75.4658 17.116 75.4658 17.38C75.4658 17.644 75.5172 17.8787 75.6198 18.084C75.7225 18.2893 75.8838 18.4653 76.1038 18.612C76.3385 18.744 76.6392 18.8467 77.0058 18.92C77.3872 18.9933 77.8492 19.03 78.3918 19.03C78.9492 19.03 79.3452 19.1767 79.5798 19.47C79.8145 19.7487 79.9318 20.1007 79.9318 20.526C79.9318 20.9807 79.7778 21.362 79.4698 21.67C79.1765 21.9633 78.7438 22.11 78.1718 22.11C77.5118 22.11 76.9105 22.0587 76.3678 21.956C75.8398 21.8533 75.3778 21.6847 74.9818 21.45C74.6005 21.2007 74.2852 20.878 74.0358 20.482C73.8012 20.0713 73.6545 19.5727 73.5958 18.986H74.6518C74.3878 19.69 74.0505 20.2547 73.6398 20.68C73.2438 21.0907 72.7965 21.3987 72.2978 21.604C71.7992 21.8093 71.2785 21.9413 70.7358 22C70.2078 22.0733 69.6872 22.11 69.1738 22.11ZM75.3118 27.214C74.8865 27.214 74.5198 27.06 74.2118 26.752C73.9185 26.4587 73.7718 26.1067 73.7718 25.696C73.7718 25.2707 73.9185 24.904 74.2118 24.596C74.5198 24.288 74.8865 24.134 75.3118 24.134C75.7225 24.134 76.0745 24.288 76.3678 24.596C76.6612 24.904 76.8078 25.2707 76.8078 25.696C76.8078 26.1067 76.6612 26.4587 76.3678 26.752C76.0745 27.06 75.7225 27.214 75.3118 27.214ZM71.5058 27.214C71.0805 27.214 70.7138 27.06 70.4058 26.752C70.1125 26.4587 69.9658 26.1067 69.9658 25.696C69.9658 25.2707 70.1125 24.904 70.4058 24.596C70.7138 24.288 71.0805 24.134 71.5058 24.134C71.9165 24.134 72.2685 24.288 72.5618 24.596C72.8552 24.904 73.0018 25.2707 73.0018 25.696C73.0018 26.1067 72.8552 26.4587 72.5618 26.752C72.2685 27.06 71.9165 27.214 71.5058 27.214ZM78.1758 22.11L78.3958 19.03C79.0411 19.03 79.5471 18.986 79.9138 18.898C80.2951 18.81 80.5664 18.6487 80.7278 18.414C80.8891 18.1647 80.9698 17.8127 80.9698 17.358C80.9698 16.9473 80.9111 16.456 80.7938 15.884C80.6911 15.312 80.5518 14.718 80.3758 14.102C80.1998 13.486 80.0238 12.9213 79.8478 12.408L82.8838 11.572C83.0598 12.0707 83.2358 12.65 83.4118 13.31C83.5878 13.97 83.7344 14.652 83.8518 15.356C83.9838 16.0453 84.0498 16.7127 84.0498 17.358C84.0498 18.1647 83.9471 18.8467 83.7418 19.404C83.5364 19.9467 83.2504 20.4013 82.8838 20.768C82.5318 21.12 82.1064 21.3987 81.6078 21.604C81.1238 21.7947 80.5884 21.9267 80.0018 22C79.4151 22.0733 78.8064 22.11 78.1758 22.11ZM79.0338 9.284L78.6598 7.744C79.1731 7.656 79.5544 7.58267 79.8038 7.524C80.0678 7.46533 80.3464 7.39933 80.6398 7.326L80.4198 7.876C80.0384 7.744 79.6718 7.48733 79.3198 7.106C78.9824 6.71 78.8138 6.26267 78.8138 5.764C78.8138 5.236 78.9311 4.81067 79.1658 4.488C79.4004 4.16533 79.7011 3.93067 80.0678 3.784C80.4344 3.63733 80.8158 3.564 81.2118 3.564C81.4318 3.564 81.6371 3.57867 81.8278 3.608C82.0331 3.63733 82.2164 3.68133 82.3778 3.74L82.2018 5.324C82.0551 5.29467 81.9084 5.26533 81.7618 5.236C81.6151 5.20667 81.4538 5.192 81.2778 5.192C81.0871 5.192 80.9111 5.258 80.7498 5.39C80.6031 5.50733 80.5298 5.654 80.5298 5.83C80.5298 6.07933 80.6178 6.29933 80.7938 6.49C80.9698 6.68067 81.1751 6.83467 81.4098 6.952C81.6591 7.05467 81.8644 7.11333 82.0258 7.128L80.8158 7.26C81.2118 7.15733 81.5858 7.05467 81.9378 6.952C82.2898 6.83467 82.6198 6.71733 82.9278 6.6L83.3678 8.074C83.0011 8.206 82.5684 8.35267 82.0698 8.514C81.5858 8.66067 81.0798 8.8 80.5518 8.932C80.0384 9.064 79.5324 9.18133 79.0338 9.284ZM92.1322 22.11C90.7682 22.11 89.7122 21.9707 88.9642 21.692C88.2309 21.4133 87.7175 20.9807 87.4242 20.394C87.1309 19.7927 86.9622 19.0373 86.9182 18.128L86.4562 5.896H89.5362L89.9982 16.654C90.0275 17.3287 90.1009 17.8347 90.2182 18.172C90.3355 18.5093 90.5555 18.7367 90.8782 18.854C91.2155 18.9713 91.7069 19.03 92.3522 19.03C92.9095 19.03 93.3055 19.1767 93.5402 19.47C93.7895 19.7487 93.9142 20.1007 93.9142 20.526C93.9142 20.9807 93.7602 21.362 93.4522 21.67C93.1442 21.9633 92.7042 22.11 92.1322 22.11ZM114.228 22.11C113.48 22.11 112.761 22.044 112.072 21.912C111.383 21.7653 110.759 21.5747 110.202 21.34C109.659 21.1053 109.212 20.8413 108.86 20.548L110.84 18.414C111.368 18.634 111.911 18.7953 112.468 18.898C113.025 18.986 113.685 19.03 114.448 19.03C115.005 19.03 115.401 19.1767 115.636 19.47C115.885 19.7487 116.01 20.1007 116.01 20.526C116.01 20.9807 115.856 21.362 115.548 21.67C115.24 21.9633 114.8 22.11 114.228 22.11ZM103.558 22.396C102.194 22.396 101.057 22.3373 100.148 22.22C99.2534 22.1027 98.5274 21.934 97.9701 21.714C97.4128 21.494 96.9728 21.23 96.6501 20.922C96.3274 20.614 96.0634 20.2767 95.8581 19.91L96.4741 19.734C96.1074 20.438 95.6894 20.9587 95.2201 21.296C94.7508 21.6333 94.2594 21.8533 93.7461 21.956C93.2328 22.0587 92.7048 22.11 92.1621 22.11L92.3821 19.03C92.8368 19.03 93.1961 18.9567 93.4601 18.81C93.7241 18.6633 93.9368 18.4213 94.0981 18.084C94.2741 17.7467 94.4354 17.2993 94.5821 16.742C94.7288 16.1847 94.9048 15.5027 95.1101 14.696L97.9041 15.378C97.8014 15.774 97.7134 16.1187 97.6401 16.412C97.5814 16.7053 97.5301 16.962 97.4861 17.182C97.4568 17.3873 97.4421 17.556 97.4421 17.688C97.4421 17.9667 97.5081 18.216 97.6401 18.436C97.7721 18.6413 98.0288 18.81 98.4101 18.942C98.7914 19.0593 99.3488 19.1547 100.082 19.228C100.83 19.2867 101.805 19.316 103.008 19.316C104.284 19.316 105.347 19.272 106.198 19.184C107.049 19.0813 107.723 18.942 108.222 18.766C108.735 18.5753 109.102 18.348 109.322 18.084C109.542 17.8053 109.652 17.49 109.652 17.138C109.652 16.8593 109.586 16.6027 109.454 16.368C109.337 16.1187 109.139 15.9133 108.86 15.752C108.581 15.5907 108.222 15.51 107.782 15.51C107.254 15.51 106.719 15.642 106.176 15.906C105.648 16.1553 105.127 16.4927 104.614 16.918C104.101 17.3287 103.609 17.7907 103.14 18.304C102.685 18.8173 102.275 19.3307 101.908 19.844L98.6081 19.47C99.1801 18.546 99.8254 17.6587 100.544 16.808C101.263 15.9573 102.033 15.2093 102.854 14.564C103.675 13.904 104.526 13.3833 105.406 13.002C106.286 12.6207 107.181 12.43 108.09 12.43C109.073 12.43 109.909 12.6207 110.598 13.002C111.287 13.3833 111.815 13.9113 112.182 14.586C112.549 15.2607 112.732 16.038 112.732 16.918C112.732 17.9887 112.424 18.9347 111.808 19.756C111.207 20.5773 110.231 21.2227 108.882 21.692C107.547 22.1613 105.773 22.396 103.558 22.396ZM114.248 22.11L114.468 19.03C115.26 19.03 116.045 18.986 116.822 18.898C117.599 18.81 118.355 18.678 119.088 18.502C119.821 18.326 120.518 18.0987 121.178 17.82C121.853 17.5413 122.483 17.204 123.07 16.808C122.63 16.544 122.153 16.3167 121.64 16.126C121.127 15.9353 120.577 15.796 119.99 15.708C119.418 15.6053 118.809 15.554 118.164 15.554C117.929 15.554 117.68 15.5613 117.416 15.576C117.167 15.5907 116.91 15.62 116.646 15.664C116.382 15.6933 116.118 15.7373 115.854 15.796L115.414 12.782C115.839 12.6647 116.287 12.584 116.756 12.54C117.24 12.4813 117.665 12.452 118.032 12.452C118.824 12.452 119.55 12.54 120.21 12.716C120.885 12.892 121.501 13.112 122.058 13.376C122.63 13.64 123.158 13.904 123.642 14.168C124.141 14.432 124.61 14.652 125.05 14.828C125.505 15.004 125.945 15.092 126.37 15.092H127.184L127.536 18.018C126.905 18.0473 126.311 18.172 125.754 18.392C125.211 18.5973 124.669 18.8613 124.126 19.184C123.598 19.492 123.026 19.8147 122.41 20.152C121.809 20.4893 121.127 20.8047 120.364 21.098C119.601 21.3913 118.721 21.6333 117.724 21.824C116.727 22.0147 115.568 22.11 114.248 22.11ZM136.752 10.208C136.752 9.724 136.723 9.24 136.664 8.756C136.62 8.272 136.561 7.81733 136.488 7.392C136.415 6.952 136.349 6.57067 136.29 6.248L139.37 5.808C139.429 6.10133 139.487 6.49 139.546 6.974C139.605 7.458 139.656 7.97133 139.7 8.514C139.744 9.042 139.766 9.548 139.766 10.032C139.766 10.7947 139.7 11.5133 139.568 12.188C139.436 12.8627 139.238 13.5007 138.974 14.102C138.71 14.6887 138.38 15.2533 137.984 15.796L137.588 16.324C137.207 16.7933 136.759 17.2553 136.246 17.71C135.747 18.1647 135.197 18.6047 134.596 19.03H136.026C136.525 19.03 136.906 19.0007 137.17 18.942C137.434 18.8833 137.61 18.8027 137.698 18.7C137.801 18.5827 137.852 18.4507 137.852 18.304C137.852 18.04 137.625 17.6513 137.17 17.138C136.715 16.61 136.085 16.0087 135.278 15.334C134.471 14.6447 133.525 13.9187 132.44 13.156C131.369 12.3787 130.211 11.6013 128.964 10.824L130.57 8.47C132.301 9.54067 133.76 10.5233 134.948 11.418C136.151 12.3127 137.133 13.1267 137.896 13.86C138.673 14.5933 139.275 15.2607 139.7 15.862C140.125 16.4633 140.419 17.006 140.58 17.49C140.741 17.9593 140.822 18.3847 140.822 18.766C140.822 19.1913 140.756 19.602 140.624 19.998C140.492 20.3793 140.279 20.724 139.986 21.032C139.693 21.3253 139.311 21.56 138.842 21.736C138.373 21.912 137.793 22 137.104 22H130.636V19.052C132.147 17.9667 133.342 16.94 134.222 15.972C135.117 15.004 135.762 14.0507 136.158 13.112C136.554 12.1733 136.752 11.2053 136.752 10.208ZM143.744 22L143.282 5.896H146.362L146.824 22H143.744Z" fill="#00260F"/>
<path d="M158.234 16.7573C156.841 16.0001 156.841 13.9999 158.234 13.2427L164.795 9.67746C166.128 8.9533 167.75 9.91806 167.75 11.4348V18.5652C167.75 20.0819 166.128 21.0467 164.795 20.3225L158.234 16.7573Z" fill="#4EB44C"/>
</svg>
