<svg xmlns="http://www.w3.org/2000/svg" width="34" height="34" viewBox="0 0 34 34" fill="none">
  <g clip-path="url(#clip0_2634_195)">
    <path d="M18.4183 2.8335C19.4677 2.83179 20.4806 3.2184 21.2621 3.9189C22.0435 4.6194 22.5381 5.58423 22.6507 6.62761C22.7632 7.67099 22.4858 8.71912 21.8718 9.57017C21.2578 10.4212 20.3506 11.015 19.3249 11.2372L19.0827 11.2825L21.117 14.5366L23.5593 13.5591C23.8953 13.4235 24.2704 13.4217 24.6076 13.5541C24.9448 13.6866 25.2184 13.9432 25.3723 14.2712C25.5261 14.5992 25.5484 14.9736 25.4347 15.3176C25.3209 15.6615 25.0797 15.9488 24.7607 16.1204L24.6105 16.1913L22.1696 17.1673C21.591 17.3988 20.9522 17.4331 20.3521 17.2648C19.7521 17.0966 19.2242 16.7352 18.8503 16.2366L18.7143 16.0383L18.4834 15.6699L17.6249 19.1039C17.5506 19.4027 17.4281 19.6874 17.2623 19.9468L17.1348 20.131L19.4765 21.8707C20.0351 22.2858 20.4213 22.8919 20.5617 23.5735L20.6028 23.8313L21.1028 28.3335H21.2516C21.6127 28.3339 21.96 28.4722 22.2225 28.72C22.4851 28.9679 22.6431 29.3067 22.6642 29.6671C22.6854 30.0276 22.5681 30.3825 22.3364 30.6594C22.1046 30.9363 21.7759 31.1143 21.4173 31.1569L21.2516 31.1668H19.9624C19.6079 31.1669 19.2639 31.0461 18.9873 30.8244C18.7107 30.6026 18.518 30.2931 18.4409 29.9471L18.4126 29.7813L17.7864 24.1444L13.3239 20.8294C13.2445 20.771 13.1714 20.7046 13.1058 20.6311C12.7122 20.316 12.4099 19.9016 12.2298 19.4307C12.0498 18.9598 11.9986 18.4494 12.0815 17.9522L12.1283 17.7298L13.2531 13.229L11.0289 13.8948L9.846 17.4478C9.73239 17.7916 9.49147 18.0788 9.17271 18.2505C8.85395 18.4222 8.48155 18.4654 8.13199 18.3711C7.78242 18.2768 7.48221 18.0523 7.29302 17.7436C7.10383 17.4349 7.04001 17.0654 7.11467 16.7112L7.15717 16.5525L8.34151 12.9995C8.47307 12.6053 8.68976 12.2448 8.97621 11.9437C9.26265 11.6425 9.61184 11.4081 9.99901 11.257L10.2158 11.1819L15.0848 9.72134C14.5891 9.09502 14.2798 8.34167 14.1926 7.54765C14.1053 6.75364 14.2436 5.95112 14.5916 5.2321C14.9396 4.51309 15.4831 3.90669 16.16 3.48245C16.8368 3.05821 17.6195 2.8333 18.4183 2.8335ZM13.6016 21.5335C13.9022 21.7589 14.1009 22.0945 14.154 22.4665C14.2072 22.8384 14.1104 23.2163 13.8849 23.5168L12.1623 25.8147C11.8363 26.2492 11.3564 26.5424 10.821 26.6341C10.2857 26.7258 9.73552 26.609 9.28359 26.3077L6.54942 24.4844C6.26642 24.7115 5.90706 24.8214 5.54544 24.7913C5.18383 24.7613 4.84753 24.5936 4.60589 24.3229C4.36425 24.0522 4.23571 23.6991 4.24675 23.3364C4.2578 22.9737 4.40759 22.6291 4.66526 22.3736L5.3665 21.6738C5.60031 21.4395 5.9081 21.2935 6.23745 21.2607C6.5668 21.2279 6.89733 21.3103 7.17275 21.4938L10.2979 23.5778L11.6183 21.8168C11.7299 21.668 11.8697 21.5426 12.0298 21.4478C12.1899 21.353 12.3671 21.2907 12.5512 21.2644C12.7354 21.2381 12.923 21.2483 13.1032 21.2945C13.2834 21.3407 13.4528 21.4219 13.6016 21.5335Z" fill="#292D30"/>
  </g>
  <defs>
    <clipPath id="clip0_2634_195">
      <rect width="34" height="34" fill="white"/>
    </clipPath>
  </defs>
</svg>