<svg xmlns="http://www.w3.org/2000/svg" width="34" height="34" viewBox="0 0 34 34" fill="none">
  <g clip-path="url(#clip0_2615_250)">
    <path fill-rule="evenodd" clip-rule="evenodd" d="M16.9987 2.8335C24.8229 2.8335 31.1654 9.17591 31.1654 17.0002C31.1654 24.8244 24.8229 31.1668 16.9987 31.1668C9.17445 31.1668 2.83203 24.8244 2.83203 17.0002C2.83203 9.17591 9.17445 2.8335 16.9987 2.8335ZM19.0982 23.9985C17.7009 24.1126 16.2965 24.1126 14.8992 23.9985C15.0309 24.5609 15.1783 25.0822 15.3384 25.5597C15.6939 26.6292 16.0892 27.3914 16.4575 27.8575C16.6374 28.087 16.7834 28.2088 16.8825 28.2683L16.9548 28.308L16.9973 28.3193L17.0426 28.308L17.1149 28.2697C17.214 28.2102 17.3599 28.087 17.5399 27.8589C17.9082 27.3914 18.3034 26.6292 18.659 25.5597C18.8191 25.0822 18.9664 24.5609 19.0982 23.9985ZM6.80861 21.9656C8.09511 24.5994 10.349 26.6345 13.1 27.6464C12.933 27.2563 12.7827 26.8593 12.6495 26.4564C12.3405 25.5138 12.0944 24.5516 11.9129 23.5763C10.1593 23.2213 8.44833 22.6814 6.80861 21.9656ZM27.1902 21.9656C25.5681 22.6739 23.8596 23.2165 22.0831 23.5763C21.8848 24.6247 21.6354 25.5922 21.3464 26.4578C21.2104 26.8687 21.0603 27.2682 20.896 27.645C23.6479 26.6336 25.9029 24.5984 27.1902 21.9642V21.9656ZM19.798 15.4007C17.9398 15.6457 16.0575 15.6457 14.1994 15.4007C14.1767 15.9221 14.1654 16.4562 14.1654 17.0002C14.1654 18.4508 14.2504 19.8321 14.3991 21.1028C16.1266 21.2998 17.8708 21.2998 19.5983 21.1028C19.747 19.8307 19.832 18.4508 19.832 17.0002C19.832 16.4562 19.8207 15.9235 19.798 15.3993V15.4007ZM6.47003 12.7955C5.77741 14.5277 5.52432 16.4044 5.73336 18.2582C7.53754 19.2936 9.47651 20.0741 11.4949 20.5772C11.3208 18.6684 11.2857 16.7494 11.3901 14.8355C9.6706 14.3658 8.01745 13.6803 6.47003 12.7955ZM27.5274 12.7955C25.9799 13.6803 24.3268 14.3657 22.6073 14.8355C22.7117 16.7494 22.6767 18.6684 22.5024 20.5772C24.5204 20.074 26.4589 19.2935 28.2626 18.2582C28.4714 16.4048 28.2183 14.5287 27.5259 12.7969L27.5274 12.7955ZM17.0214 5.68383L17.0058 5.681L16.9774 5.68525L16.9236 5.7065C16.7424 5.82151 16.5839 5.96895 16.4561 6.14141C16.0878 6.60891 15.6939 7.37108 15.3369 8.43925C14.9544 9.58391 14.6456 10.9892 14.4402 12.5745C16.1377 12.8104 17.8597 12.8104 19.5572 12.5745C19.3518 10.9878 19.0415 9.58391 18.6604 8.43925C18.3034 7.37108 17.9096 6.6075 17.5413 6.14141C17.424 5.98132 17.2803 5.84239 17.1163 5.73058L17.0214 5.68383ZM13.1 6.35533C10.9956 7.12876 9.16692 8.5074 7.8442 10.3177C9.03845 11.0034 10.3177 11.5587 11.6621 11.9653C11.8888 10.3163 12.2245 8.81608 12.6495 7.5425C12.7869 7.13025 12.9371 6.73216 13.1 6.35533ZM20.8974 6.35533C21.0603 6.73216 21.209 7.13025 21.3479 7.5425C21.7729 8.8175 22.1086 10.3163 22.3353 11.9653C23.6797 11.5587 24.9589 11.0034 26.1532 10.3177C24.8305 8.50734 23.0019 7.12869 20.8974 6.35533Z" fill="#4678D2"/>
  </g>
  <defs>
    <clipPath id="clip0_2615_250">
      <rect width="34" height="34" fill="white"/>
    </clipPath>
  </defs>
</svg>