<svg xmlns="http://www.w3.org/2000/svg" width="34" height="34" viewBox="0 0 34 34" fill="none">
  <g clip-path="url(#clip0_2615_246)">
    <path d="M4.2487 26.9167H5.66536V9.01004C5.66541 8.56398 5.80581 8.12925 6.06668 7.76744C6.32755 7.40562 6.69567 7.13507 7.11887 6.99412L18.4522 3.21729C18.7716 3.1109 19.1117 3.08193 19.4445 3.13275C19.7773 3.18357 20.0932 3.31274 20.3663 3.5096C20.6394 3.70646 20.8618 3.96539 21.0152 4.26506C21.1687 4.56473 21.2487 4.89655 21.2487 5.2332V26.9167H22.6654V14.1525C22.6654 14.0478 22.6887 13.9443 22.7336 13.8497C22.7784 13.755 22.8437 13.6715 22.9248 13.6051C23.0058 13.5387 23.1005 13.4911 23.2022 13.4657C23.3038 13.4403 23.4098 13.4378 23.5125 13.4584L26.6235 14.0817C27.1051 14.178 27.5384 14.438 27.8499 14.8177C28.1614 15.1973 28.3317 15.6731 28.332 16.1642V26.9167H29.7487C30.1244 26.9167 30.4848 27.066 30.7504 27.3316C31.0161 27.5973 31.1654 27.9576 31.1654 28.3334C31.1654 28.7091 31.0161 29.0694 30.7504 29.3351C30.4848 29.6008 30.1244 29.75 29.7487 29.75H4.2487C3.87297 29.75 3.51264 29.6008 3.24696 29.3351C2.98129 29.0694 2.83203 28.7091 2.83203 28.3334C2.83203 27.9576 2.98129 27.5973 3.24696 27.3316C3.51264 27.066 3.87297 26.9167 4.2487 26.9167Z" fill="#7A7986"/>
  </g>
  <defs>
    <clipPath id="clip0_2615_246">
      <rect width="34" height="34" fill="white"/>
    </clipPath>
  </defs>
</svg>