<svg xmlns="http://www.w3.org/2000/svg" width="34" height="34" viewBox="0 0 34 34" fill="none">
  <g clip-path="url(#clip0_2615_242)">
    <path d="M9.5213 23.5735C9.882 23.4683 10.2697 23.5107 10.5991 23.6913C10.9286 23.872 11.1728 24.1761 11.278 24.5368C11.3832 24.8975 11.3408 25.2852 11.1601 25.6147C10.9795 25.9441 10.6753 26.1883 10.3146 26.2935C9.6063 26.5003 9.0963 26.7185 8.76905 26.9168C9.10622 27.1194 9.63889 27.3461 10.3784 27.5572C12.0146 28.0247 14.3564 28.3335 17.0013 28.3335C19.6462 28.3335 21.988 28.0247 23.6242 27.5572C24.3651 27.3461 24.8964 27.1194 25.2336 26.9168C24.9077 26.7185 24.3977 26.5003 23.6894 26.2935C23.3344 26.1837 23.0367 25.9387 22.8606 25.6115C22.6845 25.2842 22.644 24.9009 22.7479 24.5441C22.8518 24.1873 23.0917 23.8856 23.416 23.704C23.7402 23.5225 24.1228 23.4756 24.4813 23.5735C25.4276 23.8497 26.2946 24.2039 26.9605 24.6587C27.5767 25.0822 28.3346 25.8203 28.3346 26.9168C28.3346 28.0261 27.5583 28.7698 26.9321 29.1934C26.255 29.6496 25.3696 30.0052 24.402 30.2814C22.4498 30.841 19.8346 31.1668 17.0013 31.1668C14.168 31.1668 11.5528 30.841 9.60064 30.2814C8.63305 30.0052 7.74764 29.6496 7.07047 29.1934C6.4443 28.7684 5.66797 28.0261 5.66797 26.9168C5.66797 25.8203 6.42589 25.0822 7.04214 24.6587C7.70797 24.2039 8.57497 23.8497 9.5213 23.5735ZM17.0013 2.8335C19.8192 2.8335 22.5217 3.95291 24.5143 5.94549C26.5069 7.93806 27.6263 10.6406 27.6263 13.4585C27.6263 17.0965 25.643 20.0545 23.5888 22.1568C22.7176 23.0465 21.8038 23.8129 20.9637 24.4447C20.1222 25.0766 18.1984 26.2609 18.1984 26.2609C17.8335 26.4683 17.421 26.5774 17.0013 26.5774C16.5816 26.5774 16.1691 26.4683 15.8042 26.2609C14.8491 25.708 13.9258 25.1016 13.0389 24.4447C12.1075 23.7493 11.23 22.9845 10.4138 22.1568C8.35964 20.0545 6.3763 17.0965 6.3763 13.4585C6.3763 10.6406 7.49572 7.93806 9.48829 5.94549C11.4809 3.95291 14.1834 2.8335 17.0013 2.8335ZM17.0013 10.6252C16.2499 10.6252 15.5292 10.9237 14.9978 11.455C14.4665 11.9864 14.168 12.7071 14.168 13.4585C14.168 14.2099 14.4665 14.9306 14.9978 15.462C15.5292 15.9933 16.2499 16.2918 17.0013 16.2918C17.7527 16.2918 18.4734 15.9933 19.0048 15.462C19.5361 14.9306 19.8346 14.2099 19.8346 13.4585C19.8346 12.7071 19.5361 11.9864 19.0048 11.455C18.4734 10.9237 17.7527 10.6252 17.0013 10.6252Z" fill="#B73853"/>
  </g>
  <defs>
    <clipPath id="clip0_2615_242">
      <rect width="34" height="34" fill="white"/>
    </clipPath>
  </defs>
</svg>