<svg xmlns="http://www.w3.org/2000/svg" width="34" height="34" viewBox="0 0 34 34" fill="none">
  <g clip-path="url(#clip0_2634_187)">
    <path d="M17.0013 17C19.6546 17 22.0598 17.8778 23.822 19.1066C25.4986 20.2758 26.918 22.0123 26.918 23.8809C26.918 24.9071 26.4808 25.7566 25.791 26.3894C25.142 26.9848 24.2947 27.3709 23.4221 27.6349C21.6777 28.1629 19.3817 28.3333 17.0013 28.3333C14.6209 28.3333 12.3249 28.1629 10.5805 27.6349C9.70786 27.3709 8.8605 26.9848 8.21154 26.3894C7.52183 25.7566 7.08464 24.9071 7.08464 23.8809C7.08464 22.0123 8.50401 20.2758 10.1805 19.1066C11.9427 17.8778 14.348 17 17.0013 17ZM26.918 18.4167C28.3977 18.4167 29.7404 18.9047 30.7335 19.5973C31.641 20.2301 32.5846 21.2836 32.5846 22.5655C32.5846 23.2982 32.2663 23.9061 31.7917 24.3416C31.3578 24.7397 30.8216 24.9727 30.3335 25.1205C29.6676 25.3219 28.8813 25.4252 28.0653 25.4705C28.2386 24.9821 28.3346 24.4504 28.3346 23.8809C28.3346 21.7057 26.976 19.8594 25.4558 18.5768C25.9215 18.4738 26.4117 18.4167 26.918 18.4167ZM7.08464 18.4167C7.59088 18.4167 8.08112 18.4738 8.54679 18.5768C7.02654 19.8594 5.66797 21.7057 5.66797 23.8809C5.66797 24.4504 5.76406 24.9821 5.93723 25.4705C5.12126 25.4252 4.335 25.3219 3.66907 25.1205C3.18094 24.9727 2.64479 24.7397 2.21089 24.3416C1.73625 23.9061 1.41797 23.2982 1.41797 22.5655C1.41797 21.2836 2.36164 20.2301 3.26908 19.5973C4.26218 18.9047 5.60494 18.4167 7.08464 18.4167ZM26.2096 9.91667C28.1656 9.91667 29.7513 11.5023 29.7513 13.4583C29.7513 15.4143 28.1656 17 26.2096 17C24.2536 17 22.668 15.4143 22.668 13.4583C22.668 11.5023 24.2536 9.91667 26.2096 9.91667ZM7.79297 9.91667C9.74897 9.91667 11.3346 11.5023 11.3346 13.4583C11.3346 15.4143 9.74897 17 7.79297 17C5.83696 17 4.2513 15.4143 4.2513 13.4583C4.2513 11.5023 5.83696 9.91667 7.79297 9.91667ZM17.0013 4.25C20.1309 4.25 22.668 6.78705 22.668 9.91667C22.668 13.0463 20.1309 15.5833 17.0013 15.5833C13.8717 15.5833 11.3346 13.0463 11.3346 9.91667C11.3346 6.78705 13.8717 4.25 17.0013 4.25Z" fill="#FF4119"/>
  </g>
  <defs>
    <clipPath id="clip0_2634_187">
      <rect width="34" height="34" fill="white"/>
    </clipPath>
  </defs>
</svg>